
<!-- Generator: visioncortex VTracer 0.6.4 -->
<svg version="1.1" xmlns="http://www.w3.org/2000/svg" viewBox="0 0 1024 1024" preserveAspectRatio="xMidYMid meet">
<path d="M0 0 C11.717 -0.213 23.247 -0.338 34.819 1.703 C37.367 2.14 39.921 2.526 42.477 2.914 C53.364 4.603 64.05 6.625 74.694 9.491 C75.46 9.697 76.226 9.902 77.016 10.113 C77.68 10.297 78.344 10.481 79.028 10.671 C81.265 11.202 81.265 11.202 84.938 11.066 C84.938 11.726 84.938 12.386 84.938 13.066 C86.423 12.571 86.423 12.571 87.938 12.066 C87.938 12.726 87.938 13.386 87.938 14.066 C89.838 14.434 89.838 14.434 91.777 14.809 C97.27 16.034 102.319 18.022 107.5 20.191 C108.465 20.592 109.431 20.994 110.425 21.407 C134.643 31.596 156.794 44.78 176.984 61.605 C178.974 63.254 178.974 63.254 181.938 64.066 C183.262 65.449 183.262 65.449 184.625 67.191 C186.801 69.826 189.02 72.106 191.625 74.316 C200.702 82.077 208.569 90.688 215.938 100.066 C216.856 101.218 217.775 102.369 218.695 103.52 C251.208 144.332 271.21 192.15 276.938 244.066 C277.032 244.797 277.127 245.529 277.225 246.282 C278.157 254.045 278.124 261.833 278.123 269.64 C278.125 272.034 278.143 274.427 278.162 276.82 C278.22 292.055 276.807 306.938 273.438 321.816 C273.183 322.943 272.928 324.07 272.665 325.232 C267.327 347.821 259.281 369.308 248.938 390.066 C248.238 391.482 248.238 391.482 247.524 392.926 C238.835 410.389 228.78 426.988 218.539 443.574 C217.765 444.831 217.765 444.831 216.975 446.114 C216.017 447.667 215.054 449.216 214.086 450.763 C211.752 454.159 211.752 454.159 210.938 458.066 C210.277 458.066 209.618 458.066 208.938 458.066 C208.671 458.784 208.405 459.502 208.131 460.242 C206.916 463.117 205.49 465.61 203.84 468.258 C203.212 469.27 202.584 470.283 201.938 471.326 C201.257 472.416 200.576 473.506 199.875 474.629 C198.413 476.983 196.955 479.339 195.496 481.695 C194.932 482.605 194.932 482.605 194.356 483.534 C190.697 489.441 187.091 495.379 183.493 501.323 C176.207 513.359 168.894 525.379 161.473 537.332 C159.324 540.794 157.221 544.272 155.184 547.801 C154.784 548.474 154.384 549.147 153.973 549.84 C152.975 551.523 152 553.22 151.027 554.918 C148.938 557.066 148.938 557.066 145.52 557.672 C141.26 556.952 139.736 555.759 136.688 552.754 C135.857 551.953 135.027 551.153 134.172 550.328 C133.435 549.582 132.697 548.835 131.938 548.066 C131.048 547.241 131.048 547.241 130.141 546.398 C128.938 545.066 128.938 545.066 128.938 543.066 C128.277 543.066 127.618 543.066 126.938 543.066 C125.708 541.815 125.708 541.815 124.195 539.953 C118.466 533.217 112.082 527.106 105.812 520.879 C104.538 519.609 103.263 518.339 101.988 517.068 C99.648 514.737 97.307 512.406 94.964 510.077 C94.453 509.568 93.941 509.058 93.414 508.534 C92.01 507.139 90.603 505.748 89.196 504.358 C86.602 501.726 84.303 498.905 81.938 496.066 C80.281 494.389 78.613 492.725 76.938 491.066 C75.859 489.983 74.782 488.899 73.706 487.814 C73.116 487.22 72.526 486.626 71.918 486.013 C71.287 485.378 70.657 484.743 70.008 484.089 C63.129 477.162 56.244 470.242 49.353 463.327 C45.189 459.147 41.027 454.964 36.872 450.774 C32.846 446.716 28.813 442.665 24.775 438.619 C23.238 437.077 21.703 435.531 20.171 433.983 C18.034 431.824 15.887 429.674 13.738 427.526 C13.106 426.883 12.473 426.24 11.822 425.578 C10.941 424.703 10.941 424.703 10.042 423.81 C9.536 423.302 9.03 422.793 8.509 422.269 C6.629 420.83 5.291 420.314 2.938 420.066 C0.301 421.959 0.301 421.959 -2.062 424.066 C-2.723 424.066 -3.382 424.066 -4.062 424.066 C-4.294 424.624 -4.526 425.182 -4.765 425.756 C-6.404 428.675 -8.437 430.672 -10.816 433.031 C-11.297 433.511 -11.779 433.991 -12.275 434.486 C-13.864 436.068 -15.459 437.643 -17.055 439.219 C-18.164 440.322 -19.272 441.425 -20.38 442.529 C-23.298 445.433 -26.22 448.331 -29.145 451.228 C-33.819 455.859 -38.487 460.497 -43.152 465.139 C-44.778 466.755 -46.407 468.367 -48.037 469.979 C-49.042 470.977 -50.046 471.975 -51.05 472.972 C-51.924 473.837 -52.797 474.703 -53.697 475.594 C-56.076 478.007 -56.076 478.007 -58.063 480.572 C-60.234 483.28 -62.579 485.643 -65.062 488.066 C-66.034 489.033 -67.004 490.001 -67.973 490.97 C-69.053 492.047 -70.134 493.125 -71.214 494.202 C-77.239 500.21 -83.261 506.221 -89.282 512.234 C-92.92 515.866 -96.559 519.498 -100.2 523.128 C-103.728 526.646 -107.255 530.166 -110.779 533.688 C-112.123 535.03 -113.467 536.371 -114.813 537.711 C-116.687 539.578 -118.558 541.448 -120.429 543.319 C-120.988 543.874 -121.547 544.43 -122.122 545.002 C-124.942 547.769 -124.942 547.769 -127.062 551.066 C-127.722 551.066 -128.382 551.066 -129.062 551.066 C-129.465 551.995 -129.465 551.995 -129.875 552.941 C-131.063 555.066 -131.063 555.066 -134.062 557.066 C-137.312 557.754 -137.312 557.754 -141.062 557.066 C-143.829 554.351 -145.914 551.279 -148.062 548.066 C-149.552 545.821 -149.552 545.821 -151.062 544.066 C-151.722 544.066 -152.382 544.066 -153.062 544.066 C-153.179 543.329 -153.296 542.592 -153.417 541.833 C-154.065 539.056 -154.926 537.224 -156.398 534.801 C-156.88 534.002 -157.361 533.204 -157.857 532.382 C-158.379 531.535 -158.9 530.689 -159.438 529.816 C-159.978 528.927 -160.519 528.037 -161.077 527.12 C-164.864 520.925 -168.774 514.816 -172.755 508.745 C-178.644 499.724 -184.165 490.474 -189.725 481.249 C-190.799 479.497 -191.923 477.776 -193.062 476.066 C-193.392 476.726 -193.722 477.386 -194.062 478.066 C-194.722 478.066 -195.382 478.066 -196.062 478.066 C-195.963 477.084 -195.864 476.102 -195.762 475.09 C-195.765 470.111 -198.2 466.732 -200.875 462.691 C-201.327 461.968 -201.779 461.245 -202.244 460.5 C-204.779 456.254 -204.779 456.254 -209.062 454.066 C-209.158 453.357 -209.253 452.648 -209.352 451.918 C-210.183 448.582 -211.561 446.316 -213.438 443.441 C-214.043 442.5 -214.649 441.559 -215.273 440.59 C-216.92 438.098 -216.92 438.098 -218.789 436.418 C-220.062 435.066 -220.062 435.066 -220.062 432.066 C-221.468 429.052 -223.236 426.235 -224.938 423.379 C-225.398 422.582 -225.858 421.784 -226.332 420.963 C-226.777 420.209 -227.221 419.456 -227.68 418.68 C-228.088 417.987 -228.497 417.293 -228.917 416.579 C-229.295 416.08 -229.673 415.581 -230.062 415.066 C-230.722 415.066 -231.382 415.066 -232.062 415.066 C-232.162 414.356 -232.261 413.645 -232.363 412.913 C-233.167 409.641 -234.486 407.382 -236.258 404.52 C-239.895 398.447 -242.995 392.25 -245.938 385.816 C-246.45 384.699 -246.962 383.581 -247.49 382.43 C-268.867 335.141 -276.464 287.665 -271.062 236.066 C-270.971 235.166 -270.88 234.266 -270.786 233.339 C-269.235 218.715 -265.569 205.04 -261.062 191.066 C-260.653 189.769 -260.653 189.769 -260.234 188.446 C-248.706 152.271 -229.141 119.323 -203.336 91.523 C-201.321 89.345 -199.37 87.13 -197.438 84.879 C-153.065 33.96 -84.45 5.67 -18.137 0.668 C-12.094 0.278 -6.053 0.131 0 0 Z M-37.062 135.066 C-37.912 135.306 -38.761 135.546 -39.637 135.793 C-60.706 141.873 -78.996 152.15 -95.062 167.066 C-95.643 167.603 -96.223 168.139 -96.821 168.692 C-105.413 176.727 -112.749 185.134 -119.062 195.066 C-119.42 195.628 -119.778 196.19 -120.147 196.768 C-128.882 210.717 -134.978 225.896 -138.062 242.066 C-138.24 242.987 -138.417 243.908 -138.6 244.857 C-140.163 253.837 -140.421 262.672 -140.375 271.754 C-140.373 272.503 -140.371 273.252 -140.369 274.023 C-140.251 302.967 -132.615 333.247 -114.359 356.41 C-113.187 357.907 -112.117 359.484 -111.062 361.066 C-110.082 362.085 -109.085 363.09 -108.062 364.066 C-108.062 362.746 -108.062 361.426 -108.062 360.066 C-107.567 362.541 -107.567 362.541 -107.062 365.066 C-103.595 364.49 -102.016 363.356 -99.625 360.816 C-99.019 360.182 -98.413 359.548 -97.789 358.895 C-97.219 358.291 -96.65 357.688 -96.062 357.066 C-95.217 356.241 -94.371 355.416 -93.5 354.566 C-91.594 352.612 -89.824 350.646 -88.062 348.566 C-84.559 344.439 -80.857 340.709 -76.688 337.254 C-73.385 334.469 -70.608 331.4 -67.836 328.094 C-65.685 325.635 -63.377 323.373 -61.062 321.066 C-59.07 319.051 -57.085 317.028 -55.098 315.007 C-49.26 309.071 -43.407 303.151 -37.545 297.238 C-34.006 293.667 -30.472 290.091 -26.951 286.502 C-23.535 283.021 -20.104 279.554 -16.663 276.098 C-15.357 274.781 -14.057 273.459 -12.762 272.131 C-10.95 270.276 -9.12 268.44 -7.286 266.608 C-6.758 266.059 -6.23 265.509 -5.686 264.943 C-1.997 261.314 0.773 260.166 5.938 260.066 C10.734 262.365 13.791 265.942 17.129 269.969 C19.278 272.462 21.603 274.75 23.938 277.066 C25.284 278.408 26.631 279.749 27.978 281.091 C29.113 282.222 29.113 282.222 30.272 283.375 C33.682 286.771 37.088 290.17 40.495 293.569 C42.296 295.365 44.098 297.16 45.901 298.955 C48.504 301.546 51.104 304.14 53.703 306.734 C54.919 307.942 54.919 307.942 56.159 309.174 C56.903 309.919 57.648 310.663 58.415 311.43 C59.073 312.086 59.731 312.742 60.408 313.417 C61.938 315.066 61.938 315.066 62.938 317.066 C63.597 317.066 64.257 317.066 64.938 317.066 C64.938 317.726 64.938 318.386 64.938 319.066 C65.597 319.066 66.257 319.066 66.938 319.066 C66.938 319.726 66.938 320.386 66.938 321.066 C67.597 321.066 68.257 321.066 68.938 321.066 C68.938 321.726 68.938 322.386 68.938 323.066 C69.597 323.066 70.257 323.066 70.938 323.066 C71.165 323.62 71.392 324.174 71.626 324.745 C73.32 327.744 75.46 329.794 77.918 332.207 C78.409 332.693 78.9 333.179 79.406 333.679 C80.974 335.23 82.549 336.774 84.125 338.316 C86.184 340.339 88.241 342.365 90.293 344.395 C90.789 344.885 91.285 345.375 91.795 345.88 C95.203 349.272 98.409 352.785 101.531 356.44 C103.285 358.469 105.137 360.329 107.125 362.129 C107.758 362.718 108.391 363.307 109.043 363.914 C110.855 365.25 110.855 365.25 112.953 365.016 C125.188 359.163 133.644 333.877 137.875 321.941 C149.072 288.996 149.597 252.675 136.938 220.066 C136.271 218.733 135.605 217.399 134.938 216.066 C134.641 215.142 134.345 214.218 134.039 213.266 C132.782 209.614 131.133 206.272 129.312 202.879 C128.785 201.894 128.785 201.894 128.246 200.89 C124.962 194.897 121.145 189.449 116.938 184.066 C116.277 183.191 115.618 182.316 114.938 181.414 C111.224 176.591 107.396 172.417 102.699 168.539 C100.938 167.066 100.938 167.066 99.332 165.375 C98.013 163.838 98.013 163.838 95.938 164.066 C95.938 163.406 95.938 162.746 95.938 162.066 C94.472 160.762 94.472 160.762 92.543 159.5 C91.48 158.772 91.48 158.772 90.396 158.029 C89.647 157.526 88.897 157.023 88.125 156.504 C87.387 155.997 86.649 155.489 85.889 154.967 C81.644 152.074 81.644 152.074 76.938 150.066 C76.278 150.396 75.618 150.726 74.938 151.066 C74.938 150.076 74.938 149.086 74.938 148.066 C72.957 147.736 70.977 147.406 68.938 147.066 C68.938 146.406 68.938 145.746 68.938 145.066 C67.231 144.271 65.522 143.48 63.812 142.691 C62.386 142.03 62.386 142.03 60.93 141.355 C57.966 140.079 55.011 139.044 51.938 138.066 C50.968 137.748 49.999 137.43 49 137.102 C22.154 128.575 -9.862 125.999 -37.062 135.066 Z M70.938 148.066 C71.928 149.551 71.928 149.551 72.938 151.066 C72.278 151.066 71.617 151.066 70.938 151.066 C70.938 150.076 70.938 149.086 70.938 148.066 Z M-275.062 259.066 C-273.062 260.066 -273.062 260.066 -273.062 260.066 Z M-104.062 361.066 C-103.733 361.726 -103.402 362.386 -103.062 363.066 C-103.723 362.736 -104.382 362.406 -105.062 362.066 C-104.733 361.736 -104.402 361.406 -104.062 361.066 Z M110.938 363.066 C112.938 364.066 112.938 364.066 112.938 364.066 Z " fill="#067DFE" transform="translate(508.0625,119.93359375)"/>
<path d="M0 0 C0.997 1.011 1.993 2.022 2.99 3.034 C4.468 4.513 5.946 5.992 7.426 7.469 C41.554 41.598 41.554 41.598 43.916 43.962 C45.152 45.197 46.391 46.43 47.635 47.658 C49.548 49.55 51.274 51.401 52.927 53.534 C54.979 56.179 54.979 56.179 57.927 58.471 C61.059 61.092 63.42 63.871 65.99 67.034 C67.643 68.714 69.312 70.378 70.99 72.034 C72.015 73.053 73.04 74.072 74.064 75.092 C74.612 75.636 75.159 76.18 75.723 76.741 C78.187 79.192 80.649 81.645 83.11 84.099 C84.406 85.39 85.703 86.679 87 87.968 C88.886 89.842 90.768 91.719 92.65 93.596 C93.226 94.167 93.802 94.738 94.396 95.326 C103.906 104.835 103.906 104.835 104.334 110.561 C102.991 120.222 95.38 129.902 90.104 137.879 C89.009 139.562 87.991 141.294 86.99 143.034 C87.32 143.694 87.65 144.354 87.99 145.034 C87 145.034 86.01 145.034 84.99 145.034 C84.713 145.766 84.435 146.498 84.149 147.253 C83.073 149.834 81.869 152.125 80.443 154.526 C79.681 155.813 79.681 155.813 78.904 157.126 C78.355 158.044 77.806 158.963 77.24 159.909 C76.666 160.875 76.092 161.841 75.5 162.836 C70.198 171.733 64.809 180.577 59.412 189.417 C53.843 198.544 48.36 207.723 42.874 216.901 C40.736 220.477 38.591 224.05 36.441 227.619 C35.328 229.471 34.218 231.324 33.109 233.179 C8.593 274.166 8.593 274.166 -3.01 278.034 C-12.521 278.893 -18.326 277.422 -25.948 271.909 C-28.01 270.034 -28.01 270.034 -29.01 268.034 C-30 268.034 -30.99 268.034 -32.01 268.034 C-31.68 267.044 -31.35 266.054 -31.01 265.034 C-32.134 262.604 -32.134 262.604 -33.877 260.018 C-34.512 259.021 -35.146 258.023 -35.8 256.996 C-36.832 255.406 -36.832 255.406 -37.885 253.784 C-39.275 251.606 -40.665 249.428 -42.053 247.249 C-42.733 246.186 -43.413 245.124 -44.113 244.029 C-47.251 239.074 -50.217 234.022 -53.178 228.959 C-56.318 223.705 -56.318 223.705 -61.01 220.034 C-61.152 219.133 -61.294 218.232 -61.44 217.303 C-62.07 213.691 -63.138 211.777 -65.135 208.721 C-65.856 207.595 -66.574 206.467 -67.291 205.338 C-67.709 204.683 -68.127 204.028 -68.557 203.353 C-71.661 198.399 -74.635 193.364 -77.635 188.346 C-79.503 185.227 -81.372 182.109 -83.245 178.993 C-84.424 177.017 -85.587 175.032 -86.736 173.039 C-87.533 171.665 -87.533 171.665 -88.346 170.264 C-89.047 169.039 -89.047 169.039 -89.761 167.788 C-90.173 167.209 -90.586 166.63 -91.01 166.034 C-91.67 166.034 -92.33 166.034 -93.01 166.034 C-93.123 165.303 -93.236 164.572 -93.353 163.819 C-94.035 160.929 -94.993 158.999 -96.53 156.471 C-97.052 155.602 -97.574 154.732 -98.112 153.836 C-98.677 152.911 -99.241 151.987 -99.823 151.034 C-101.003 149.067 -102.183 147.1 -103.362 145.131 C-103.965 144.126 -104.569 143.121 -105.191 142.085 C-108.078 137.243 -110.895 132.362 -113.698 127.471 C-114.202 126.598 -114.706 125.725 -115.226 124.825 C-115.695 124.006 -116.164 123.186 -116.647 122.342 C-117.261 121.272 -117.261 121.272 -117.888 120.18 C-120.226 115.708 -121.634 112.132 -121.01 107.034 C-118.285 102.398 -115.038 98.843 -111.198 95.159 C-107 91.065 -103.03 86.908 -99.315 82.362 C-98.669 81.704 -98.669 81.704 -98.01 81.034 C-97.35 81.034 -96.69 81.034 -96.01 81.034 C-95.515 79.549 -95.515 79.549 -95.01 78.034 C-94.35 78.034 -93.69 78.034 -93.01 78.034 C-92.787 77.486 -92.564 76.937 -92.335 76.373 C-90.606 73.321 -88.29 71.051 -85.813 68.61 C-85.285 68.081 -84.756 67.552 -84.211 67.007 C-82.465 65.262 -80.712 63.525 -78.959 61.788 C-77.741 60.573 -76.522 59.357 -75.304 58.141 C-72.097 54.941 -68.883 51.747 -65.668 48.555 C-62.409 45.316 -59.156 42.072 -55.903 38.829 C-50.639 33.583 -45.372 28.34 -40.1 23.102 C-38.736 21.746 -37.373 20.39 -36.01 19.034 C-34.657 17.688 -34.657 17.688 -33.276 16.316 C-31.259 14.284 -29.369 12.209 -27.51 10.034 C-17.249 -1.778 -17.249 -1.778 -11.073 -4.966 C-6.591 -4.966 -3.11 -3.042 0 0 Z " fill="#067DFE" transform="translate(520.010009765625,624.96630859375)"/>
<path d="M0 0 C0.66 0.99 1.32 1.98 2 3 C1.01 3.33 0.02 3.66 -1 4 C-0.67 2.68 -0.34 1.36 0 0 Z M8 12 C8.99 12.495 8.99 12.495 10 13 C9.67 13.66 9.34 14.32 9 15 C8.67 14.01 8.34 13.02 8 12 Z M11 16 C14 17 14 17 14 17 Z " fill="#479BF5" transform="translate(356,660)"/>
<path d="M0 0 C0.66 0.33 1.32 0.66 2 1 C1.67 1.99 1.34 2.98 1 4 C0.34 3.67 -0.32 3.34 -1 3 C-0.67 2.01 -0.34 1.02 0 0 Z " fill="#3D93F3" transform="translate(300,571)"/>
<path d="M0 0 C0.99 0.495 0.99 0.495 2 1 C2.625 3.062 2.625 3.062 3 5 C2.01 4.67 1.02 4.34 0 4 C0 2.68 0 1.36 0 0 Z " fill="#2580EF" transform="translate(323,611)"/>
<path d="M0 0 C1.485 0.99 1.485 0.99 3 2 C2.34 2.66 1.68 3.32 1 4 C0.67 2.68 0.34 1.36 0 0 Z " fill="#2580EF" transform="translate(282,547)"/>
<path d="M0 0 C0.66 0 1.32 0 2 0 C1.67 0.99 1.34 1.98 1 3 C0.67 2.01 0.34 1.02 0 0 Z " fill="#3181E0" transform="translate(482,885)"/>
<path d="M0 0 C1.98 0.99 1.98 0.99 4 2 C3.34 2.66 2.68 3.32 2 4 C1.34 3.67 0.68 3.34 0 3 C0 2.01 0 1.02 0 0 Z " fill="#2680ED" transform="translate(472,867)"/>
<path d="M0 0 C0.66 0.66 1.32 1.32 2 2 C1.34 2 0.68 2 0 2 C0 1.34 0 0.68 0 0 Z " fill="#2082F9" transform="translate(601,282)"/>
<path d="M0 0 C0.33 0.66 0.66 1.32 1 2 C0.34 1.67 -0.32 1.34 -1 1 C-0.67 0.67 -0.34 0.34 0 0 Z " fill="#2580EF" transform="translate(403,749)"/>
<path d="M0 0 C2 2 2 2 2 5 C1.34 5 0.68 5 0 5 C0 3.35 0 1.7 0 0 Z " fill="#2082F9" transform="translate(592,275)"/>
<path d="M0 0 C0.33 0.66 0.66 1.32 1 2 C0.34 1.67 -0.32 1.34 -1 1 C-0.67 0.67 -0.34 0.34 0 0 Z " fill="#2580EF" transform="translate(441,813)"/>
<path d="M0 0 C0.99 0.33 1.98 0.66 3 1 C2.01 1 1.02 1 0 1 C0 0.67 0 0.34 0 0 Z M-1 2 C1 3 1 3 1 3 Z " fill="#2580EF" transform="translate(434,804)"/>
<path d="M0 0 C0.99 0 1.98 0 3 0 C3 0.66 3 1.32 3 2 C2.01 2 1.02 2 0 2 C0 1.34 0 0.68 0 0 Z " fill="#2580EF" transform="translate(416,774)"/>
<path d="M0 0 C0.99 0.33 1.98 0.66 3 1 C2.34 1.66 1.68 2.32 1 3 C0.67 2.01 0.34 1.02 0 0 Z " fill="#2082F9" transform="translate(608,291)"/>
<path d="M0 0 C0.99 0.495 0.99 0.495 2 1 C1.67 1.99 1.34 2.98 1 4 C0.67 2.68 0.34 1.36 0 0 Z " fill="#2580EF" transform="translate(766,287)"/>
<path d="M0 0 C0.33 0.66 0.66 1.32 1 2 C0.34 1.67 -0.32 1.34 -1 1 C-0.67 0.67 -0.34 0.34 0 0 Z M-3 2 C-1 3 -1 3 -1 3 Z " fill="#2082F9" transform="translate(427,277)"/>
<path d="M0 0 C1.65 0 3.3 0 5 0 C5 0.33 5 0.66 5 1 C3.35 1 1.7 1 0 1 C0 0.67 0 0.34 0 0 Z " fill="#2580EF" transform="translate(547,121)"/>
<path d="" fill="#2580EF" transform="translate(0,0)"/>
<path d="M0 0 C1 4 1 4 1 4 Z " fill="#2580EF" transform="translate(783,344)"/>
<path d="" fill="#2880EB" transform="translate(0,0)"/>
<path d="" fill="#2580EF" transform="translate(0,0)"/>
<path d="M0 0 C4 1 4 1 4 1 Z " fill="#2281F4" transform="translate(480,120)"/>
<path d="" fill="#2980EA" transform="translate(0,0)"/>
<path d="" fill="#2082F9" transform="translate(0,0)"/>
<path d="M0 0 C0.66 0.66 1.32 1.32 2 2 C1.34 2 0.68 2 0 2 C0 1.34 0 0.68 0 0 Z " fill="#2580EF" transform="translate(653,678)"/>
<path d="M0 0 C0.66 0.66 1.32 1.32 2 2 C1.34 2 0.68 2 0 2 C0 1.34 0 0.68 0 0 Z " fill="#2580EF" transform="translate(352,658)"/>
<path d="" fill="#2580EF" transform="translate(0,0)"/>
<path d="" fill="#2580EF" transform="translate(0,0)"/>
<path d="" fill="#2580EF" transform="translate(0,0)"/>
<path d="" fill="#3181E0" transform="translate(0,0)"/>
<path d="" fill="#1C80F9" transform="translate(0,0)"/>
<path d="" fill="#2580EF" transform="translate(0,0)"/>
<path d="" fill="#2580EF" transform="translate(0,0)"/>
<path d="" fill="#1C80F9" transform="translate(0,0)"/>
<path d="" fill="#2580EF" transform="translate(0,0)"/>
<path d="" fill="#2580EF" transform="translate(0,0)"/>
<path d="M0 0 C3 1 3 1 3 1 Z " fill="#2082F9" transform="translate(539,254)"/>
<path d="M0 0 C3 1 3 1 3 1 Z " fill="#2082F9" transform="translate(480,254)"/>
<path d="M0 0 C0.66 0 1.32 0 2 0 C1.67 0.66 1.34 1.32 1 2 C0.67 1.34 0.34 0.68 0 0 Z " fill="#2082F9" transform="translate(535,253)"/>
<path d="M0 0 C3 1 3 1 3 1 Z " fill="#2580EF" transform="translate(424,131)"/>
<path d="M0 0 C3 1 3 1 3 1 Z " fill="#2580EF" transform="translate(436,128)"/>
<path d="M0 0 C3 1 3 1 3 1 Z " fill="#2580EF" transform="translate(540,120)"/>
<path d="M0 0 C2 1 2 1 2 1 Z " fill="#3181E0" transform="translate(496,900)"/>
<path d="" fill="#3181E0" transform="translate(0,0)"/>
<path d="" fill="#2580EF" transform="translate(0,0)"/>
<path d="" fill="#3181E0" transform="translate(0,0)"/>
<path d="" fill="#2580EF" transform="translate(0,0)"/>
<path d="" fill="#2580EF" transform="translate(0,0)"/>
<path d="" fill="#2580EF" transform="translate(0,0)"/>
<path d="" fill="#2580EF" transform="translate(0,0)"/>
<path d="" fill="#2580EF" transform="translate(0,0)"/>
<path d="" fill="#2580EF" transform="translate(0,0)"/>
<path d="" fill="#2580EF" transform="translate(0,0)"/>
<path d="" fill="#2580EF" transform="translate(0,0)"/>
<path d="M0 0 C2 1 2 1 2 1 Z " fill="#2580EF" transform="translate(404,721)"/>
<path d="" fill="#2082F9" transform="translate(0,0)"/>
<path d="" fill="#2082F9" transform="translate(0,0)"/>
<path d="" fill="#2580EF" transform="translate(0,0)"/>
<path d="" fill="#2580EF" transform="translate(0,0)"/>
<path d="" fill="#2082F9" transform="translate(0,0)"/>
<path d="M0 0 C2 1 2 1 2 1 Z " fill="#2082F9" transform="translate(476,648)"/>
<path d="M0 0 C2 1 2 1 2 1 Z " fill="#2580EF" transform="translate(676,647)"/>
<path d="M0 0 C2 1 2 1 2 1 Z " fill="#2580EF" transform="translate(337,635)"/>
<path d="" fill="#2580EF" transform="translate(0,0)"/>
<path d="" fill="#2580EF" transform="translate(0,0)"/>
<path d="" fill="#2580EF" transform="translate(0,0)"/>
<path d="" fill="#2580EF" transform="translate(0,0)"/>
<path d="M0 0 C2 1 2 1 2 1 Z " fill="#1A7FF9" transform="translate(514,542)"/>
<path d="" fill="#2580EF" transform="translate(0,0)"/>
<path d="M0 0 C2 1 2 1 2 1 Z " fill="#2580EF" transform="translate(266,518)"/>
<path d="" fill="#2580EF" transform="translate(0,0)"/>
<path d="" fill="#3181E0" transform="translate(0,0)"/>
<path d="" fill="#2580EF" transform="translate(0,0)"/>
<path d="" fill="#2580EF" transform="translate(0,0)"/>
<path d="" fill="#2580EF" transform="translate(0,0)"/>
<path d="" fill="#2082F9" transform="translate(0,0)"/>
<path d="M0 0 C2 1 2 1 2 1 Z " fill="#2082F9" transform="translate(633,456)"/>
<path d="" fill="#3181E0" transform="translate(0,0)"/>
<path d="" fill="#2B80E7" transform="translate(0,0)"/>
<path d="" fill="#2580EF" transform="translate(0,0)"/>
<path d="" fill="#147DF9" transform="translate(0,0)"/>
<path d="" fill="#2082F9" transform="translate(0,0)"/>
<path d="" fill="#1A7FF9" transform="translate(0,0)"/>
<path d="" fill="#2082F9" transform="translate(0,0)"/>
<path d="" fill="#2082F9" transform="translate(0,0)"/>
<path d="" fill="#2580EF" transform="translate(0,0)"/>
<path d="" fill="#2082F9" transform="translate(0,0)"/>
<path d="" fill="#2082F9" transform="translate(0,0)"/>
<path d="" fill="#2082F9" transform="translate(0,0)"/>
<path d="" fill="#147DF9" transform="translate(0,0)"/>
<path d="" fill="#2082F9" transform="translate(0,0)"/>
<path d="M0 0 C2 1 2 1 2 1 Z " fill="#2580EF" transform="translate(234,364)"/>
<path d="" fill="#2082F9" transform="translate(0,0)"/>
<path d="M0 0 C2 1 2 1 2 1 Z " fill="#2580EF" transform="translate(781,336)"/>
<path d="" fill="#2082F9" transform="translate(0,0)"/>
<path d="" fill="#2082F9" transform="translate(0,0)"/>
<path d="" fill="#2082F9" transform="translate(0,0)"/>
<path d="" fill="#2580EF" transform="translate(0,0)"/>
<path d="" fill="#2082F9" transform="translate(0,0)"/>
<path d="" fill="#2082F9" transform="translate(0,0)"/>
<path d="M0 0 C2 1 2 1 2 1 Z " fill="#2082F9" transform="translate(544,255)"/>
<path d="M0 0 C2 1 2 1 2 1 Z " fill="#2082F9" transform="translate(487,253)"/>
<path d="M0 0 C2 1 2 1 2 1 Z " fill="#2082F9" transform="translate(510,251)"/>
<path d="M0 0 C2 1 2 1 2 1 Z " fill="#2580EF" transform="translate(280,239)"/>
<path d="" fill="#2580EF" transform="translate(0,0)"/>
<path d="M0 0 C2 1 2 1 2 1 Z " fill="#2580EF" transform="translate(285,232)"/>
<path d="" fill="#2580EF" transform="translate(0,0)"/>
<path d="" fill="#2580EF" transform="translate(0,0)"/>
<path d="" fill="#2580EF" transform="translate(0,0)"/>
<path d="" fill="#2580EF" transform="translate(0,0)"/>
<path d="M0 0 C2 1 2 1 2 1 Z " fill="#2580EF" transform="translate(609,136)"/>
<path d="M0 0 C2 1 2 1 2 1 Z " fill="#2580EF" transform="translate(432,129)"/>
<path d="M0 0 C2 1 2 1 2 1 Z " fill="#2580EF" transform="translate(590,128)"/>
<path d="M0 0 C2 1 2 1 2 1 Z " fill="#2580EF" transform="translate(471,121)"/>
<path d="M0 0 C2 1 2 1 2 1 Z " fill="#2580EF" transform="translate(558,120)"/>
<path d="M0 0 C2 1 2 1 2 1 Z " fill="#2580EF" transform="translate(544,120)"/>
<path d="" fill="#4B4B4C" transform="translate(0,0)"/>
<path d="" fill="#52565B" transform="translate(0,0)"/>
<path d="" fill="#4F5152" transform="translate(0,0)"/>
<path d="" fill="#3181E0" transform="translate(0,0)"/>
<path d="" fill="#3181E0" transform="translate(0,0)"/>
<path d="" fill="#3181E0" transform="translate(0,0)"/>
<path d="" fill="#3181E0" transform="translate(0,0)"/>
<path d="" fill="#3181E0" transform="translate(0,0)"/>
<path d="" fill="#3181E0" transform="translate(0,0)"/>
<path d="" fill="#3181E0" transform="translate(0,0)"/>
<path d="" fill="#3181E0" transform="translate(0,0)"/>
<path d="" fill="#3181E0" transform="translate(0,0)"/>
<path d="" fill="#3181E0" transform="translate(0,0)"/>
<path d="" fill="#3181E0" transform="translate(0,0)"/>
<path d="" fill="#2580EF" transform="translate(0,0)"/>
<path d="" fill="#2580EF" transform="translate(0,0)"/>
<path d="" fill="#2580EF" transform="translate(0,0)"/>
<path d="" fill="#2580EF" transform="translate(0,0)"/>
<path d="" fill="#2580EF" transform="translate(0,0)"/>
<path d="" fill="#2580EF" transform="translate(0,0)"/>
<path d="" fill="#2580EF" transform="translate(0,0)"/>
<path d="" fill="#2580EF" transform="translate(0,0)"/>
<path d="" fill="#2580EF" transform="translate(0,0)"/>
<path d="" fill="#2580EF" transform="translate(0,0)"/>
<path d="" fill="#2580EF" transform="translate(0,0)"/>
<path d="" fill="#2580EF" transform="translate(0,0)"/>
<path d="" fill="#3181E0" transform="translate(0,0)"/>
<path d="" fill="#2580EF" transform="translate(0,0)"/>
<path d="" fill="#2580EF" transform="translate(0,0)"/>
<path d="" fill="#2580EF" transform="translate(0,0)"/>
<path d="" fill="#3181E0" transform="translate(0,0)"/>
<path d="" fill="#2580EF" transform="translate(0,0)"/>
<path d="" fill="#2580EF" transform="translate(0,0)"/>
<path d="" fill="#2580EF" transform="translate(0,0)"/>
<path d="" fill="#2580EF" transform="translate(0,0)"/>
<path d="" fill="#3181E0" transform="translate(0,0)"/>
<path d="" fill="#2580EF" transform="translate(0,0)"/>
<path d="" fill="#2580EF" transform="translate(0,0)"/>
<path d="" fill="#2580EF" transform="translate(0,0)"/>
<path d="" fill="#2580EF" transform="translate(0,0)"/>
<path d="" fill="#2580EF" transform="translate(0,0)"/>
<path d="" fill="#2580EF" transform="translate(0,0)"/>
<path d="" fill="#2082F9" transform="translate(0,0)"/>
<path d="" fill="#2082F9" transform="translate(0,0)"/>
<path d="" fill="#2082F9" transform="translate(0,0)"/>
<path d="" fill="#2082F9" transform="translate(0,0)"/>
<path d="" fill="#2082F9" transform="translate(0,0)"/>
<path d="" fill="#2082F9" transform="translate(0,0)"/>
<path d="" fill="#2082F9" transform="translate(0,0)"/>
<path d="" fill="#2082F9" transform="translate(0,0)"/>
<path d="" fill="#2082F9" transform="translate(0,0)"/>
<path d="" fill="#147DF9" transform="translate(0,0)"/>
<path d="" fill="#2082F9" transform="translate(0,0)"/>
<path d="" fill="#2082F9" transform="translate(0,0)"/>
<path d="" fill="#2082F9" transform="translate(0,0)"/>
<path d="" fill="#2082F9" transform="translate(0,0)"/>
<path d="" fill="#147DF9" transform="translate(0,0)"/>
<path d="" fill="#2082F9" transform="translate(0,0)"/>
<path d="" fill="#2082F9" transform="translate(0,0)"/>
<path d="" fill="#2580EF" transform="translate(0,0)"/>
<path d="" fill="#2082F9" transform="translate(0,0)"/>
<path d="" fill="#2580EF" transform="translate(0,0)"/>
<path d="" fill="#2082F9" transform="translate(0,0)"/>
<path d="" fill="#2082F9" transform="translate(0,0)"/>
<path d="" fill="#2082F9" transform="translate(0,0)"/>
<path d="" fill="#2082F9" transform="translate(0,0)"/>
<path d="" fill="#2082F9" transform="translate(0,0)"/>
<path d="" fill="#2082F9" transform="translate(0,0)"/>
<path d="" fill="#2580EF" transform="translate(0,0)"/>
<path d="" fill="#2580EF" transform="translate(0,0)"/>
<path d="" fill="#2082F9" transform="translate(0,0)"/>
<path d="" fill="#2580EF" transform="translate(0,0)"/>
<path d="" fill="#2580EF" transform="translate(0,0)"/>
<path d="" fill="#2082F9" transform="translate(0,0)"/>
<path d="" fill="#2580EF" transform="translate(0,0)"/>
<path d="" fill="#2082F9" transform="translate(0,0)"/>
<path d="" fill="#2580EF" transform="translate(0,0)"/>
<path d="" fill="#2580EF" transform="translate(0,0)"/>
<path d="" fill="#2082F9" transform="translate(0,0)"/>
<path d="" fill="#2082F9" transform="translate(0,0)"/>
<path d="" fill="#2082F9" transform="translate(0,0)"/>
<path d="" fill="#2082F9" transform="translate(0,0)"/>
<path d="" fill="#2580EF" transform="translate(0,0)"/>
<path d="" fill="#2580EF" transform="translate(0,0)"/>
<path d="" fill="#2082F9" transform="translate(0,0)"/>
<path d="" fill="#2082F9" transform="translate(0,0)"/>
<path d="" fill="#2082F9" transform="translate(0,0)"/>
<path d="" fill="#2580EF" transform="translate(0,0)"/>
<path d="" fill="#2580EF" transform="translate(0,0)"/>
<path d="" fill="#2580EF" transform="translate(0,0)"/>
<path d="" fill="#2082F9" transform="translate(0,0)"/>
<path d="" fill="#2580EF" transform="translate(0,0)"/>
<path d="" fill="#2580EF" transform="translate(0,0)"/>
<path d="" fill="#2580EF" transform="translate(0,0)"/>
<path d="" fill="#2082F9" transform="translate(0,0)"/>
<path d="" fill="#147DF9" transform="translate(0,0)"/>
<path d="" fill="#2580EF" transform="translate(0,0)"/>
<path d="" fill="#2082F9" transform="translate(0,0)"/>
<path d="" fill="#2082F9" transform="translate(0,0)"/>
<path d="" fill="#3181E0" transform="translate(0,0)"/>
<path d="" fill="#2580EF" transform="translate(0,0)"/>
<path d="" fill="#2580EF" transform="translate(0,0)"/>
<path d="" fill="#2580EF" transform="translate(0,0)"/>
<path d="" fill="#2082F9" transform="translate(0,0)"/>
<path d="" fill="#147DF9" transform="translate(0,0)"/>
<path d="" fill="#2082F9" transform="translate(0,0)"/>
<path d="" fill="#2580EF" transform="translate(0,0)"/>
<path d="" fill="#2580EF" transform="translate(0,0)"/>
<path d="" fill="#2082F9" transform="translate(0,0)"/>
<path d="" fill="#2580EF" transform="translate(0,0)"/>
<path d="" fill="#2082F9" transform="translate(0,0)"/>
<path d="" fill="#2580EF" transform="translate(0,0)"/>
<path d="" fill="#2580EF" transform="translate(0,0)"/>
<path d="" fill="#2580EF" transform="translate(0,0)"/>
<path d="" fill="#2580EF" transform="translate(0,0)"/>
<path d="" fill="#2580EF" transform="translate(0,0)"/>
<path d="" fill="#2580EF" transform="translate(0,0)"/>
<path d="" fill="#3181E0" transform="translate(0,0)"/>
<path d="" fill="#2580EF" transform="translate(0,0)"/>
<path d="" fill="#3181E0" transform="translate(0,0)"/>
<path d="" fill="#2580EF" transform="translate(0,0)"/>
<path d="" fill="#3181E0" transform="translate(0,0)"/>
<path d="" fill="#2580EF" transform="translate(0,0)"/>
<path d="" fill="#3181E0" transform="translate(0,0)"/>
<path d="" fill="#3181E0" transform="translate(0,0)"/>
<path d="" fill="#2580EF" transform="translate(0,0)"/>
<path d="" fill="#3181E0" transform="translate(0,0)"/>
<path d="" fill="#2082F9" transform="translate(0,0)"/>
<path d="" fill="#2580EF" transform="translate(0,0)"/>
<path d="" fill="#2082F9" transform="translate(0,0)"/>
<path d="" fill="#2082F9" transform="translate(0,0)"/>
<path d="" fill="#3181E0" transform="translate(0,0)"/>
<path d="" fill="#3181E0" transform="translate(0,0)"/>
<path d="" fill="#2082F9" transform="translate(0,0)"/>
<path d="" fill="#2082F9" transform="translate(0,0)"/>
<path d="" fill="#2082F9" transform="translate(0,0)"/>
<path d="" fill="#2082F9" transform="translate(0,0)"/>
<path d="" fill="#2082F9" transform="translate(0,0)"/>
<path d="" fill="#2082F9" transform="translate(0,0)"/>
<path d="" fill="#147DF9" transform="translate(0,0)"/>
<path d="" fill="#3181E0" transform="translate(0,0)"/>
<path d="" fill="#2082F9" transform="translate(0,0)"/>
<path d="" fill="#2082F9" transform="translate(0,0)"/>
<path d="" fill="#2082F9" transform="translate(0,0)"/>
<path d="" fill="#147DF9" transform="translate(0,0)"/>
<path d="" fill="#3181E0" transform="translate(0,0)"/>
<path d="" fill="#2082F9" transform="translate(0,0)"/>
<path d="" fill="#2580EF" transform="translate(0,0)"/>
<path d="" fill="#2082F9" transform="translate(0,0)"/>
<path d="" fill="#2580EF" transform="translate(0,0)"/>
<path d="" fill="#147DF9" transform="translate(0,0)"/>
<path d="" fill="#3181E0" transform="translate(0,0)"/>
<path d="" fill="#2580EF" transform="translate(0,0)"/>
<path d="" fill="#3181E0" transform="translate(0,0)"/>
<path d="" fill="#2580EF" transform="translate(0,0)"/>
<path d="" fill="#147DF9" transform="translate(0,0)"/>
<path d="" fill="#2580EF" transform="translate(0,0)"/>
<path d="" fill="#2082F9" transform="translate(0,0)"/>
<path d="" fill="#3181E0" transform="translate(0,0)"/>
<path d="" fill="#2082F9" transform="translate(0,0)"/>
<path d="" fill="#2580EF" transform="translate(0,0)"/>
<path d="" fill="#3181E0" transform="translate(0,0)"/>
<path d="" fill="#2082F9" transform="translate(0,0)"/>
<path d="" fill="#2580EF" transform="translate(0,0)"/>
<path d="" fill="#3181E0" transform="translate(0,0)"/>
<path d="" fill="#2082F9" transform="translate(0,0)"/>
<path d="" fill="#3181E0" transform="translate(0,0)"/>
<path d="" fill="#2082F9" transform="translate(0,0)"/>
<path d="" fill="#2082F9" transform="translate(0,0)"/>
<path d="" fill="#147DF9" transform="translate(0,0)"/>
<path d="" fill="#3181E0" transform="translate(0,0)"/>
<path d="" fill="#2580EF" transform="translate(0,0)"/>
<path d="" fill="#2580EF" transform="translate(0,0)"/>
<path d="" fill="#147DF9" transform="translate(0,0)"/>
<path d="" fill="#2580EF" transform="translate(0,0)"/>
<path d="" fill="#147DF9" transform="translate(0,0)"/>
<path d="" fill="#2082F9" transform="translate(0,0)"/>
<path d="" fill="#2082F9" transform="translate(0,0)"/>
<path d="" fill="#2580EF" transform="translate(0,0)"/>
<path d="" fill="#2082F9" transform="translate(0,0)"/>
<path d="" fill="#2082F9" transform="translate(0,0)"/>
<path d="" fill="#2580EF" transform="translate(0,0)"/>
<path d="" fill="#2580EF" transform="translate(0,0)"/>
<path d="" fill="#2580EF" transform="translate(0,0)"/>
<path d="" fill="#2082F9" transform="translate(0,0)"/>
<path d="" fill="#2580EF" transform="translate(0,0)"/>
<path d="" fill="#2580EF" transform="translate(0,0)"/>
<path d="" fill="#2082F9" transform="translate(0,0)"/>
<path d="" fill="#2580EF" transform="translate(0,0)"/>
<path d="" fill="#2082F9" transform="translate(0,0)"/>
<path d="" fill="#2082F9" transform="translate(0,0)"/>
<path d="" fill="#4F5152" transform="translate(0,0)"/>
<path d="" fill="#2082F9" transform="translate(0,0)"/>
<path d="" fill="#2082F9" transform="translate(0,0)"/>
<path d="" fill="#2580EF" transform="translate(0,0)"/>
<path d="" fill="#2580EF" transform="translate(0,0)"/>
<path d="" fill="#3181E0" transform="translate(0,0)"/>
<path d="" fill="#2580EF" transform="translate(0,0)"/>
<path d="" fill="#147DF9" transform="translate(0,0)"/>
<path d="" fill="#2082F9" transform="translate(0,0)"/>
<path d="" fill="#2580EF" transform="translate(0,0)"/>
<path d="" fill="#2082F9" transform="translate(0,0)"/>
<path d="" fill="#2082F9" transform="translate(0,0)"/>
<path d="" fill="#2580EF" transform="translate(0,0)"/>
<path d="" fill="#2082F9" transform="translate(0,0)"/>
<path d="" fill="#2082F9" transform="translate(0,0)"/>
<path d="" fill="#2082F9" transform="translate(0,0)"/>
<path d="" fill="#2082F9" transform="translate(0,0)"/>
<path d="" fill="#2082F9" transform="translate(0,0)"/>
<path d="" fill="#2082F9" transform="translate(0,0)"/>
<path d="" fill="#2580EF" transform="translate(0,0)"/>
<path d="" fill="#2580EF" transform="translate(0,0)"/>
<path d="" fill="#2082F9" transform="translate(0,0)"/>
<path d="" fill="#2082F9" transform="translate(0,0)"/>
<path d="" fill="#2082F9" transform="translate(0,0)"/>
<path d="" fill="#3181E0" transform="translate(0,0)"/>
<path d="" fill="#2082F9" transform="translate(0,0)"/>
<path d="" fill="#2082F9" transform="translate(0,0)"/>
<path d="" fill="#2082F9" transform="translate(0,0)"/>
<path d="" fill="#2082F9" transform="translate(0,0)"/>
<path d="" fill="#2082F9" transform="translate(0,0)"/>
<path d="" fill="#147DF9" transform="translate(0,0)"/>
<path d="" fill="#2082F9" transform="translate(0,0)"/>
<path d="" fill="#3181E0" transform="translate(0,0)"/>
<path d="" fill="#2580EF" transform="translate(0,0)"/>
<path d="" fill="#3181E0" transform="translate(0,0)"/>
<path d="" fill="#2082F9" transform="translate(0,0)"/>
<path d="" fill="#2082F9" transform="translate(0,0)"/>
<path d="" fill="#2082F9" transform="translate(0,0)"/>
<path d="" fill="#2082F9" transform="translate(0,0)"/>
<path d="" fill="#2082F9" transform="translate(0,0)"/>
<path d="" fill="#2082F9" transform="translate(0,0)"/>
<path d="" fill="#2082F9" transform="translate(0,0)"/>
<path d="" fill="#3181E0" transform="translate(0,0)"/>
<path d="" fill="#2580EF" transform="translate(0,0)"/>
<path d="" fill="#2082F9" transform="translate(0,0)"/>
<path d="" fill="#2082F9" transform="translate(0,0)"/>
<path d="" fill="#2082F9" transform="translate(0,0)"/>
<path d="" fill="#2082F9" transform="translate(0,0)"/>
<path d="" fill="#2082F9" transform="translate(0,0)"/>
<path d="" fill="#147DF9" transform="translate(0,0)"/>
<path d="" fill="#2580EF" transform="translate(0,0)"/>
<path d="" fill="#2082F9" transform="translate(0,0)"/>
<path d="" fill="#2082F9" transform="translate(0,0)"/>
<path d="" fill="#2082F9" transform="translate(0,0)"/>
<path d="" fill="#2082F9" transform="translate(0,0)"/>
<path d="" fill="#2082F9" transform="translate(0,0)"/>
<path d="" fill="#2580EF" transform="translate(0,0)"/>
<path d="" fill="#2580EF" transform="translate(0,0)"/>
<path d="" fill="#2580EF" transform="translate(0,0)"/>
<path d="" fill="#2580EF" transform="translate(0,0)"/>
<path d="" fill="#2580EF" transform="translate(0,0)"/>
<path d="" fill="#2580EF" transform="translate(0,0)"/>
<path d="" fill="#2580EF" transform="translate(0,0)"/>
<path d="" fill="#2580EF" transform="translate(0,0)"/>
<path d="" fill="#2580EF" transform="translate(0,0)"/>
<path d="" fill="#3181E0" transform="translate(0,0)"/>
<path d="" fill="#2580EF" transform="translate(0,0)"/>
<path d="" fill="#2580EF" transform="translate(0,0)"/>
<path d="" fill="#2580EF" transform="translate(0,0)"/>
<path d="" fill="#2580EF" transform="translate(0,0)"/>
<path d="" fill="#2580EF" transform="translate(0,0)"/>
<path d="" fill="#2580EF" transform="translate(0,0)"/>
<path d="" fill="#2580EF" transform="translate(0,0)"/>
<path d="" fill="#2082F9" transform="translate(0,0)"/>
<path d="" fill="#2580EF" transform="translate(0,0)"/>
<path d="" fill="#2580EF" transform="translate(0,0)"/>
<path d="" fill="#2580EF" transform="translate(0,0)"/>
<path d="" fill="#2580EF" transform="translate(0,0)"/>
<path d="" fill="#2580EF" transform="translate(0,0)"/>
<path d="" fill="#2580EF" transform="translate(0,0)"/>
<path d="" fill="#2580EF" transform="translate(0,0)"/>
<path d="" fill="#2580EF" transform="translate(0,0)"/>
<path d="" fill="#2580EF" transform="translate(0,0)"/>
<path d="" fill="#2580EF" transform="translate(0,0)"/>
<path d="" fill="#2580EF" transform="translate(0,0)"/>
<path d="" fill="#2580EF" transform="translate(0,0)"/>
<path d="" fill="#2580EF" transform="translate(0,0)"/>
<path d="" fill="#2580EF" transform="translate(0,0)"/>
<path d="" fill="#2580EF" transform="translate(0,0)"/>
<path d="" fill="#2580EF" transform="translate(0,0)"/>
<path d="" fill="#2580EF" transform="translate(0,0)"/>
<path d="" fill="#2580EF" transform="translate(0,0)"/>
<path d="" fill="#2580EF" transform="translate(0,0)"/>
<path d="" fill="#2580EF" transform="translate(0,0)"/>
<path d="" fill="#2580EF" transform="translate(0,0)"/>
<path d="" fill="#2580EF" transform="translate(0,0)"/>
<path d="" fill="#2580EF" transform="translate(0,0)"/>
<path d="" fill="#2580EF" transform="translate(0,0)"/>
<path d="" fill="#2580EF" transform="translate(0,0)"/>
<path d="" fill="#2580EF" transform="translate(0,0)"/>
<path d="" fill="#2580EF" transform="translate(0,0)"/>
<path d="" fill="#2580EF" transform="translate(0,0)"/>
<path d="" fill="#2580EF" transform="translate(0,0)"/>
<path d="" fill="#2580EF" transform="translate(0,0)"/>
<path d="" fill="#2580EF" transform="translate(0,0)"/>
<path d="" fill="#4B4B4C" transform="translate(0,0)"/>
<path d="" fill="#4B4B4C" transform="translate(0,0)"/>
</svg>